<?xml version="1.0" encoding="UTF-8" standalone="no"?>
<!-- Created with Inkscape (http://www.inkscape.org/) -->
<svg xmlns:svg="http://www.w3.org/2000/svg" xmlns="http://www.w3.org/2000/svg" version="1.0" width="550" height="532" id="svg2">
  <defs id="defs5"/>
  <path d="M 256.67559,2.5686538 C 254.77089,2.6428766 253.43214,2.862727 252.82769,3.1272203 C 252.74927,3.1646591 252.62977,3.2104332 252.57944,3.2513451 C 252.55267,3.2763109 252.53381,3.3492735 252.51738,3.3754698 C 252.50876,3.3932119 252.45925,3.4192494 252.45532,3.4375372 C 252.45452,3.446815 252.45492,3.4901878 252.45532,3.4995946 C 252.46008,3.5282617 252.50181,3.5938715 252.51738,3.6237293 C 252.56221,3.6943303 252.66029,3.7948784 252.76563,3.8719789 C 252.86346,3.9388489 252.99421,4.0486947 253.13801,4.1202285 C 256.20592,5.6461427 265.43772,12.945551 273.61876,20.380704 C 281.79984,27.815817 293.05749,37.886863 298.63009,42.723334 C 307.41117,50.344401 349.83199,126.70198 349.83197,134.88672 C 349.83197,134.89307 349.83233,134.94224 349.83197,134.94877 C 349.83052,134.96216 349.83486,134.99682 349.83197,135.01084 C 349.29232,136.84484 337.5939,143.70084 323.39319,150.4645 L 296.9544,163.06326 L 329.90979,165.1734 C 348.03056,166.32086 377.22589,167.51767 394.7655,167.90417 C 431.65752,168.71709 429.08713,170.44729 461.79341,122.5362 C 493.73357,75.747482 503.94169,60.172913 504.24441,57.494302 C 504.24534,57.483139 504.3059,57.442922 504.30648,57.432245 C 504.30668,57.422034 504.30664,57.379912 504.30648,57.370178 C 504.30594,57.36092 504.2453,57.316892 504.24441,57.30811 C 504.2428,57.300271 504.24641,57.253435 504.24441,57.246053 C 504.24173,57.239573 504.24746,57.190009 504.24441,57.183985 C 504.24068,57.178865 504.18644,57.126612 504.18235,57.121928 C 504.17725,57.118554 504.12573,57.124865 504.12029,57.121928 C 504.11451,57.119427 504.12641,57.061944 504.12029,57.059861 C 504.11384,57.058194 504.06502,57.061091 504.05823,57.059861 C 504.05078,57.059444 504.00393,57.059861 503.99616,57.059861 C 503.98681,57.060377 503.94442,57.058848 503.9341,57.059861 C 502.52175,57.249625 493.55544,61.375948 483.70161,66.369299 C 473.92659,71.322671 464.62731,75.383562 462.60022,75.61666 C 462.56942,75.619428 462.50307,75.615925 462.4761,75.61666 C 462.45107,75.616382 462.38006,75.621909 462.35197,75.61666 C 462.30757,75.60509 462.21688,75.577127 462.16578,75.554602 C 460.01631,74.501124 452.47891,64.678765 444.85024,52.839588 C 436.78027,40.315537 425.21817,25.425455 419.15621,19.76007 C 408.3649,9.6746662 406.96787,9.3938002 350.20435,7.0992431 C 318.31778,5.8102863 282.16662,4.0135183 269.89498,3.0651628 C 264.33443,2.6354444 259.74426,2.4490538 256.67559,2.5686538 z M 199.32949,14.236473 C 182.71465,14.844911 168.34435,21.553961 160.354,31.303765 C 160.3326,31.322419 160.31337,31.347127 160.29195,31.365832 C 160.25917,31.406009 160.20037,31.44968 160.16782,31.489957 C 150.93203,39.604784 140.2077,54.052248 127.89512,74.996036 C 116.24587,94.811547 104.44835,113.71384 101.64252,117.07467 C 97.116975,122.49537 98.778098,124.55931 116.28936,135.01084 C 154.93086,158.07366 162.24417,162.49621 180.64857,173.86221 C 190.89389,180.18941 202.64347,187.24737 206.71497,189.5641 C 210.34115,191.6274 213.59247,193.22663 214.47284,193.34995 C 214.5008,193.35251 214.57497,193.351 214.59696,193.34995 C 214.60644,193.34852 214.6511,193.29025 214.65903,193.28788 C 215.67572,192.08646 262.30421,112.59343 272.31544,94.980285 C 276.16778,88.202679 282.02308,78.457797 285.34864,73.382404 C 290.4177,65.646013 290.67906,62.730783 286.71403,55.322104 C 280.59703,43.892443 254.01662,24.87954 234.58121,18.022313 C 228.03474,15.712584 218.69122,14.661547 209.81812,14.670914 C 209.69489,14.671053 209.5688,14.670359 209.44575,14.670914 C 209.40751,14.666529 209.35988,14.675251 209.32161,14.670914 C 206.87275,14.393631 204.36824,14.236473 201.81201,14.236473 C 200.98124,14.236473 200.14997,14.206426 199.32949,14.236473 z M 500.45858,154.87096 L 446.52594,185.03352 C 416.86707,201.596 390.45214,216.53084 387.81445,218.23716 C 383.15962,221.24837 391.66078,239.0631 432.49973,311.82798 C 438.23918,322.05432 444.93294,335.00071 447.39482,340.62516 C 449.60664,345.6784 452.19104,349.87237 453.47698,350.61728 C 453.50995,350.63516 453.56994,350.66624 453.6011,350.67934 C 453.61129,350.68317 453.65318,350.67605 453.66317,350.67934 C 453.69248,350.68762 453.75989,350.73807 453.78729,350.7414 C 453.79621,350.74196 453.84066,350.7414 453.84936,350.7414 C 454.93491,350.66957 466.15575,348.36556 478.79863,345.65225 C 521.37587,336.51471 547.72116,305.92525 547.75049,265.59113 C 547.76742,242.32902 544.12436,232.62774 518.39476,186.83334 L 500.45858,154.87096 z M 2.1557283,168.33861 L 13.327046,177.77216 C 19.414908,182.92042 26.059054,187.14715 28.160076,187.26778 C 30.205352,187.32341 35.807111,190.36665 40.572654,194.03264 L 49.199391,200.73542 L 39.145204,222.76775 C 33.592155,234.90709 27.570729,247.7652 25.801685,251.31668 C 24.032642,254.86816 22.574411,265.28887 22.574411,274.46613 C 22.574411,288.63585 28.091757,300.95821 58.881203,356.32707 L 95.125918,421.55515 L 97.608433,392.26147 C 100.35092,360.18718 109.95962,337.2075 140.36975,290.04391 C 156.34139,265.27316 157.01466,264.76509 165.00872,270.43204 C 176.41492,278.51795 208.23916,296.13872 211.92825,296.56051 C 211.95694,296.56283 212.02764,296.56059 212.05239,296.56051 C 212.06376,296.55988 212.10406,296.56176 212.11444,296.56051 C 212.12382,296.55865 212.16815,296.50093 212.17651,296.49844 C 212.18282,296.49471 212.23329,296.5028 212.23857,296.49844 C 212.24281,296.49346 212.23539,296.442 212.23857,296.43639 C 212.23857,296.42923 212.23986,296.38374 212.23857,296.37432 C 211.91672,294.90466 201.50587,275.61563 188.84086,253.05443 C 175.97484,230.13516 163.02847,206.52664 160.04369,200.54924 C 147.4765,175.38186 150.7176,176.86785 104.62154,174.42076 C 80.998743,173.16672 48.245965,171.31578 31.883849,170.26256 L 2.1557283,168.33861 z M 364.72706,300.65666 L 352.25243,321.07535 C 345.4071,332.32432 329.23838,357.45713 316.31802,376.86987 C 303.39766,396.28268 292.79621,414.22639 292.79619,416.7763 C 292.79619,416.78628 292.79579,416.82762 292.79619,416.83837 C 293.00095,419.76619 306.21086,447.86216 322.27606,479.64601 C 353.86769,542.14773 355.63496,543.24196 356.84507,500.93357 L 357.27952,485.54198 L 395.38612,484.05247 C 436.18864,482.42638 446.39083,478.71303 454.59411,462.57872 C 457.24291,457.36901 466.85815,441.39563 475.94374,427.07875 C 505.62849,380.30226 508.86372,375.17747 518.20856,359.98877 L 527.45593,344.96955 L 510.20245,353.47217 C 480.55326,368.0573 434.21916,373.00811 384.21481,367.00188 L 364.72706,364.70555 L 364.72706,332.68111 L 364.72706,300.65666 z M 184.80678,350.86553 C 145.19372,351.09602 128.48823,352.28449 124.66785,354.96168 C 124.54681,355.04972 124.38947,355.18066 124.29547,355.27199 C 124.23105,355.33757 124.16026,355.45296 124.10929,355.52025 C 122.17168,358.07682 118.50168,367.37072 115.97905,376.18718 C 103.57328,419.54472 137.94663,477.42868 178.78668,482.00439 C 185.9451,482.80642 210.641,483.77073 233.65027,484.11453 L 275.48065,484.73516 L 275.48065,417.76931 L 275.48065,350.86553 L 201.56376,350.86553 C 195.5726,350.86553 189.98979,350.83538 184.80678,350.86553 z " style="fill:#006e27;fill-opacity:1" id="path1334"/>
</svg>